<mxfile host="app.diagrams.net" modified="2023-11-15T14:05:07.179Z" agent="Mozilla/5.0 (Windows NT 10.0; Win64; x64) AppleWebKit/537.36 (KHTML, like Gecko) Chrome/119.0.0.0 Safari/537.36 Edg/119.0.0.0" etag="8bBbYdaoEnUj2-gAgxQZ" version="22.1.1" type="device">
  <diagram id="C5RBs43oDa-KdzZeNtuy" name="Page-1">
    <mxGraphModel dx="956" dy="541" grid="1" gridSize="10" guides="1" tooltips="1" connect="1" arrows="1" fold="1" page="1" pageScale="1" pageWidth="827" pageHeight="1169" math="0" shadow="0">
      <root>
        <mxCell id="WIyWlLk6GJQsqaUBKTNV-0" />
        <mxCell id="WIyWlLk6GJQsqaUBKTNV-1" parent="WIyWlLk6GJQsqaUBKTNV-0" />
        <mxCell id="WIyWlLk6GJQsqaUBKTNV-6" value="註冊/登入" style="rhombus;whiteSpace=wrap;html=1;shadow=0;fontFamily=Helvetica;fontSize=12;align=center;strokeWidth=1;spacing=6;spacingTop=-4;" parent="WIyWlLk6GJQsqaUBKTNV-1" vertex="1">
          <mxGeometry x="140" y="20" width="100" height="80" as="geometry" />
        </mxCell>
        <mxCell id="qCGcr7AwDsaGEce7SQGe-0" value="帳號" style="rounded=0;whiteSpace=wrap;html=1;" vertex="1" parent="WIyWlLk6GJQsqaUBKTNV-1">
          <mxGeometry x="30" y="40" width="80" height="40" as="geometry" />
        </mxCell>
        <mxCell id="qCGcr7AwDsaGEce7SQGe-2" value="用戶" style="rounded=0;whiteSpace=wrap;html=1;" vertex="1" parent="WIyWlLk6GJQsqaUBKTNV-1">
          <mxGeometry x="270" y="40" width="80" height="40" as="geometry" />
        </mxCell>
        <mxCell id="qCGcr7AwDsaGEce7SQGe-3" value="內容" style="rounded=0;whiteSpace=wrap;html=1;" vertex="1" parent="WIyWlLk6GJQsqaUBKTNV-1">
          <mxGeometry x="270" y="220" width="80" height="40" as="geometry" />
        </mxCell>
        <mxCell id="qCGcr7AwDsaGEce7SQGe-4" value="抓取" style="rhombus;whiteSpace=wrap;html=1;shadow=0;fontFamily=Helvetica;fontSize=12;align=center;strokeWidth=1;spacing=6;spacingTop=-4;" vertex="1" parent="WIyWlLk6GJQsqaUBKTNV-1">
          <mxGeometry x="260" y="110" width="100" height="80" as="geometry" />
        </mxCell>
        <mxCell id="qCGcr7AwDsaGEce7SQGe-5" value="資料" style="rounded=0;whiteSpace=wrap;html=1;" vertex="1" parent="WIyWlLk6GJQsqaUBKTNV-1">
          <mxGeometry x="510" y="220" width="80" height="40" as="geometry" />
        </mxCell>
        <mxCell id="qCGcr7AwDsaGEce7SQGe-6" value="比對" style="rhombus;whiteSpace=wrap;html=1;shadow=0;fontFamily=Helvetica;fontSize=12;align=center;strokeWidth=1;spacing=6;spacingTop=-4;" vertex="1" parent="WIyWlLk6GJQsqaUBKTNV-1">
          <mxGeometry x="380" y="200" width="100" height="80" as="geometry" />
        </mxCell>
        <mxCell id="qCGcr7AwDsaGEce7SQGe-7" value="爬蟲" style="rhombus;whiteSpace=wrap;html=1;shadow=0;fontFamily=Helvetica;fontSize=12;align=center;strokeWidth=1;spacing=6;spacingTop=-4;" vertex="1" parent="WIyWlLk6GJQsqaUBKTNV-1">
          <mxGeometry x="500" y="290" width="100" height="80" as="geometry" />
        </mxCell>
        <mxCell id="qCGcr7AwDsaGEce7SQGe-8" value="結果" style="rounded=0;whiteSpace=wrap;html=1;" vertex="1" parent="WIyWlLk6GJQsqaUBKTNV-1">
          <mxGeometry x="510" y="400" width="80" height="40" as="geometry" />
        </mxCell>
        <mxCell id="qCGcr7AwDsaGEce7SQGe-10" value="回傳" style="rhombus;whiteSpace=wrap;html=1;shadow=0;fontFamily=Helvetica;fontSize=12;align=center;strokeWidth=1;spacing=6;spacingTop=-4;" vertex="1" parent="WIyWlLk6GJQsqaUBKTNV-1">
          <mxGeometry x="620" y="380" width="100" height="80" as="geometry" />
        </mxCell>
        <mxCell id="qCGcr7AwDsaGEce7SQGe-12" value="資料庫" style="rounded=0;whiteSpace=wrap;html=1;" vertex="1" parent="WIyWlLk6GJQsqaUBKTNV-1">
          <mxGeometry x="750" y="400" width="80" height="40" as="geometry" />
        </mxCell>
        <mxCell id="qCGcr7AwDsaGEce7SQGe-13" value="" style="endArrow=none;html=1;rounded=0;exitX=1;exitY=0.5;exitDx=0;exitDy=0;" edge="1" parent="WIyWlLk6GJQsqaUBKTNV-1" source="WIyWlLk6GJQsqaUBKTNV-6">
          <mxGeometry width="50" height="50" relative="1" as="geometry">
            <mxPoint x="220" y="110" as="sourcePoint" />
            <mxPoint x="270" y="60" as="targetPoint" />
          </mxGeometry>
        </mxCell>
        <mxCell id="qCGcr7AwDsaGEce7SQGe-14" value="" style="endArrow=none;html=1;rounded=0;exitX=1;exitY=0.5;exitDx=0;exitDy=0;" edge="1" parent="WIyWlLk6GJQsqaUBKTNV-1">
          <mxGeometry width="50" height="50" relative="1" as="geometry">
            <mxPoint x="110" y="59.66" as="sourcePoint" />
            <mxPoint x="140" y="59.66" as="targetPoint" />
          </mxGeometry>
        </mxCell>
        <mxCell id="qCGcr7AwDsaGEce7SQGe-15" value="1" style="rounded=0;whiteSpace=wrap;html=1;" vertex="1" parent="WIyWlLk6GJQsqaUBKTNV-1">
          <mxGeometry x="120" y="30" width="20" height="20" as="geometry" />
        </mxCell>
        <mxCell id="qCGcr7AwDsaGEce7SQGe-16" value="1" style="rounded=0;whiteSpace=wrap;html=1;" vertex="1" parent="WIyWlLk6GJQsqaUBKTNV-1">
          <mxGeometry x="320" y="90" width="20" height="20" as="geometry" />
        </mxCell>
        <mxCell id="qCGcr7AwDsaGEce7SQGe-17" value="" style="endArrow=none;html=1;rounded=0;exitX=0.5;exitY=0;exitDx=0;exitDy=0;entryX=0.5;entryY=1;entryDx=0;entryDy=0;" edge="1" parent="WIyWlLk6GJQsqaUBKTNV-1" source="qCGcr7AwDsaGEce7SQGe-4" target="qCGcr7AwDsaGEce7SQGe-2">
          <mxGeometry width="50" height="50" relative="1" as="geometry">
            <mxPoint x="240" y="100" as="sourcePoint" />
            <mxPoint x="270" y="100" as="targetPoint" />
          </mxGeometry>
        </mxCell>
        <mxCell id="qCGcr7AwDsaGEce7SQGe-18" value="" style="endArrow=none;html=1;rounded=0;exitX=0.5;exitY=0;exitDx=0;exitDy=0;entryX=0.5;entryY=1;entryDx=0;entryDy=0;" edge="1" parent="WIyWlLk6GJQsqaUBKTNV-1">
          <mxGeometry width="50" height="50" relative="1" as="geometry">
            <mxPoint x="309.66" y="220" as="sourcePoint" />
            <mxPoint x="309.66" y="190" as="targetPoint" />
          </mxGeometry>
        </mxCell>
        <mxCell id="qCGcr7AwDsaGEce7SQGe-19" value="" style="endArrow=none;html=1;rounded=0;exitX=0.5;exitY=0;exitDx=0;exitDy=0;entryX=0.5;entryY=1;entryDx=0;entryDy=0;" edge="1" parent="WIyWlLk6GJQsqaUBKTNV-1">
          <mxGeometry width="50" height="50" relative="1" as="geometry">
            <mxPoint x="549.66" y="290" as="sourcePoint" />
            <mxPoint x="549.66" y="260" as="targetPoint" />
          </mxGeometry>
        </mxCell>
        <mxCell id="qCGcr7AwDsaGEce7SQGe-20" value="" style="endArrow=none;html=1;rounded=0;exitX=0.5;exitY=0;exitDx=0;exitDy=0;entryX=0.5;entryY=1;entryDx=0;entryDy=0;" edge="1" parent="WIyWlLk6GJQsqaUBKTNV-1">
          <mxGeometry width="50" height="50" relative="1" as="geometry">
            <mxPoint x="549.66" y="400" as="sourcePoint" />
            <mxPoint x="549.66" y="370" as="targetPoint" />
          </mxGeometry>
        </mxCell>
        <mxCell id="qCGcr7AwDsaGEce7SQGe-22" value="" style="endArrow=none;html=1;rounded=0;exitX=1;exitY=0.5;exitDx=0;exitDy=0;" edge="1" parent="WIyWlLk6GJQsqaUBKTNV-1">
          <mxGeometry width="50" height="50" relative="1" as="geometry">
            <mxPoint x="350" y="239.66" as="sourcePoint" />
            <mxPoint x="380" y="239.66" as="targetPoint" />
          </mxGeometry>
        </mxCell>
        <mxCell id="qCGcr7AwDsaGEce7SQGe-23" value="" style="endArrow=none;html=1;rounded=0;exitX=1;exitY=0.5;exitDx=0;exitDy=0;" edge="1" parent="WIyWlLk6GJQsqaUBKTNV-1">
          <mxGeometry width="50" height="50" relative="1" as="geometry">
            <mxPoint x="480" y="239.66" as="sourcePoint" />
            <mxPoint x="510" y="239.66" as="targetPoint" />
          </mxGeometry>
        </mxCell>
        <mxCell id="qCGcr7AwDsaGEce7SQGe-24" value="" style="endArrow=none;html=1;rounded=0;exitX=1;exitY=0.5;exitDx=0;exitDy=0;" edge="1" parent="WIyWlLk6GJQsqaUBKTNV-1">
          <mxGeometry width="50" height="50" relative="1" as="geometry">
            <mxPoint x="590" y="419.65999999999997" as="sourcePoint" />
            <mxPoint x="620" y="419.65999999999997" as="targetPoint" />
          </mxGeometry>
        </mxCell>
        <mxCell id="qCGcr7AwDsaGEce7SQGe-25" value="" style="endArrow=none;html=1;rounded=0;exitX=1;exitY=0.5;exitDx=0;exitDy=0;" edge="1" parent="WIyWlLk6GJQsqaUBKTNV-1">
          <mxGeometry width="50" height="50" relative="1" as="geometry">
            <mxPoint x="720" y="419.65999999999997" as="sourcePoint" />
            <mxPoint x="750" y="419.65999999999997" as="targetPoint" />
          </mxGeometry>
        </mxCell>
        <mxCell id="qCGcr7AwDsaGEce7SQGe-26" value="1" style="rounded=0;whiteSpace=wrap;html=1;" vertex="1" parent="WIyWlLk6GJQsqaUBKTNV-1">
          <mxGeometry x="240" y="30" width="20" height="20" as="geometry" />
        </mxCell>
        <mxCell id="qCGcr7AwDsaGEce7SQGe-27" value="M" style="rounded=0;whiteSpace=wrap;html=1;" vertex="1" parent="WIyWlLk6GJQsqaUBKTNV-1">
          <mxGeometry x="320" y="190" width="20" height="20" as="geometry" />
        </mxCell>
        <mxCell id="qCGcr7AwDsaGEce7SQGe-28" value="M" style="rounded=0;whiteSpace=wrap;html=1;" vertex="1" parent="WIyWlLk6GJQsqaUBKTNV-1">
          <mxGeometry x="360" y="210" width="20" height="20" as="geometry" />
        </mxCell>
        <mxCell id="qCGcr7AwDsaGEce7SQGe-29" value="1" style="rounded=0;whiteSpace=wrap;html=1;" vertex="1" parent="WIyWlLk6GJQsqaUBKTNV-1">
          <mxGeometry x="480" y="210" width="20" height="20" as="geometry" />
        </mxCell>
        <mxCell id="qCGcr7AwDsaGEce7SQGe-30" value="1" style="rounded=0;whiteSpace=wrap;html=1;" vertex="1" parent="WIyWlLk6GJQsqaUBKTNV-1">
          <mxGeometry x="560" y="270" width="20" height="20" as="geometry" />
        </mxCell>
        <mxCell id="qCGcr7AwDsaGEce7SQGe-31" value="M" style="rounded=0;whiteSpace=wrap;html=1;" vertex="1" parent="WIyWlLk6GJQsqaUBKTNV-1">
          <mxGeometry x="560" y="370" width="20" height="20" as="geometry" />
        </mxCell>
        <mxCell id="qCGcr7AwDsaGEce7SQGe-32" value="M" style="rounded=0;whiteSpace=wrap;html=1;" vertex="1" parent="WIyWlLk6GJQsqaUBKTNV-1">
          <mxGeometry x="600" y="390" width="20" height="20" as="geometry" />
        </mxCell>
        <mxCell id="qCGcr7AwDsaGEce7SQGe-33" value="1" style="rounded=0;whiteSpace=wrap;html=1;" vertex="1" parent="WIyWlLk6GJQsqaUBKTNV-1">
          <mxGeometry x="720" y="390" width="20" height="20" as="geometry" />
        </mxCell>
      </root>
    </mxGraphModel>
  </diagram>
</mxfile>
